<svg xmlns="http://www.w3.org/2000/svg" width="210" height="140" viewBox="0 0 210 140" role="img" aria-label="Barcode BLI-DEMO-1005"><rect width="100%" height="100%" fill="white"/><g fill="black" shape-rendering="crispEdges"><rect x="16" y="12" width="2" height="96"/><rect x="19" y="12" width="1" height="96"/><rect x="22" y="12" width="1" height="96"/><rect x="27" y="12" width="1" height="96"/><rect x="31" y="12" width="1" height="96"/><rect x="33" y="12" width="2" height="96"/><rect x="38" y="12" width="1" height="96"/><rect x="42" y="12" width="2" height="96"/><rect x="45" y="12" width="3" height="96"/><rect x="49" y="12" width="2" height="96"/><rect x="54" y="12" width="1" height="96"/><rect x="58" y="12" width="1" height="96"/><rect x="60" y="12" width="1" height="96"/><rect x="63" y="12" width="2" height="96"/><rect x="66" y="12" width="3" height="96"/><rect x="71" y="12" width="1" height="96"/><rect x="73" y="12" width="2" height="96"/><rect x="78" y="12" width="1" height="96"/><rect x="82" y="12" width="1" height="96"/><rect x="86" y="12" width="2" height="96"/><rect x="89" y="12" width="1" height="96"/><rect x="93" y="12" width="1" height="96"/><rect x="95" y="12" width="3" height="96"/><rect x="99" y="12" width="2" height="96"/><rect x="104" y="12" width="1" height="96"/><rect x="108" y="12" width="3" height="96"/><rect x="112" y="12" width="2" height="96"/><rect x="115" y="12" width="1" height="96"/><rect x="118" y="12" width="2" height="96"/><rect x="121" y="12" width="3" height="96"/><rect x="126" y="12" width="1" height="96"/><rect x="129" y="12" width="3" height="96"/><rect x="134" y="12" width="2" height="96"/><rect x="137" y="12" width="1" height="96"/><rect x="140" y="12" width="3" height="96"/><rect x="144" y="12" width="2" height="96"/><rect x="148" y="12" width="1" height="96"/><rect x="151" y="12" width="3" height="96"/><rect x="155" y="12" width="2" height="96"/><rect x="159" y="12" width="2" height="96"/><rect x="162" y="12" width="3" height="96"/><rect x="167" y="12" width="1" height="96"/><rect x="170" y="12" width="2" height="96"/><rect x="173" y="12" width="3" height="96"/><rect x="177" y="12" width="3" height="96"/><rect x="181" y="12" width="2" height="96"/><rect x="186" y="12" width="3" height="96"/><rect x="190" y="12" width="1" height="96"/><rect x="192" y="12" width="2" height="96"/></g><text x="105" y="130" text-anchor="middle" font-family="Arial,sans-serif" font-size="13" letter-spacing="1">BLI-DEMO-1005</text></svg>